<svg width="786" height="150" viewBox="0 0 786 150" fill="none" xmlns="http://www.w3.org/2000/svg">
<path d="M61.967 0.452677L107.18 30.6586C112.512 34.2212 115.714 40.1992 115.714 46.5983V46.614C115.714 53.0131 112.515 58.9911 107.18 62.5537L61.967 92.7596C60.2143 93.9305 57.8571 92.6781 57.8571 90.5731V79.9379C57.8571 77.833 55.5026 76.5805 53.7473 77.7514L16.9699 102.308C16.1886 102.829 16.1886 103.974 16.9699 104.495L53.7473 129.054C55.5 130.225 57.8571 128.973 57.8571 126.868V114.109C57.8571 112.354 58.7335 110.715 60.1985 109.739L114.687 73.3363C115.126 73.0442 115.714 73.3573 115.714 73.8836V82.9085C115.714 89.3075 112.515 95.2856 107.18 98.8482L60.1985 130.235C58.7361 131.212 57.8571 132.851 57.8571 134.606V147.364C57.8571 149.469 55.5026 150.722 53.7473 149.551L8.53379 119.345C3.19918 115.782 1.86631e-06 109.804 1.5866e-06 103.405C1.30689e-06 97.0063 3.19918 91.0283 8.53379 87.4657L53.7473 57.2598C55.5 56.0889 57.8571 57.3414 57.8571 59.4463V70.0815C57.8571 72.1865 60.2117 73.4389 61.967 72.268L98.7391 47.7033C99.5204 47.1824 99.5204 46.0378 98.7391 45.5168L61.967 20.9522C60.2143 19.7813 57.8571 21.0337 57.8571 23.1387V35.9131C57.8571 37.668 56.9808 39.3073 55.5158 40.2834L1.0268 76.6831C0.588629 76.9752 4.1761e-07 76.6621 3.94608e-07 76.1359L0 67.1083C-2.7971e-07 60.7093 3.19918 54.7339 8.53115 51.1686L55.5185 19.7655C56.9808 18.7893 57.8571 17.1501 57.8571 15.3951V2.63655C57.8571 0.531604 60.2116 -0.720837 61.967 0.450037V0.452677Z" fill="#00EB77"/>
<path d="M196.575 119.686C171.504 119.686 151.575 99.8859 151.575 74.043C151.575 48.2002 171.504 28.4001 196.575 28.4001C217.107 28.4001 234.553 41.6039 239.847 62.4504C240.016 63.1164 239.507 63.7573 238.82 63.7573H225.774C225.307 63.7573 224.894 63.4523 224.744 63.0104C220.336 50.0943 209.57 42.543 196.575 42.543C179.475 42.543 166.361 55.9144 166.361 74.043C166.361 92.1716 179.475 105.543 196.575 105.543C209.575 105.543 220.469 98.1092 224.999 84.9442C225.151 84.5039 225.562 84.2002 226.028 84.2002H238.959C239.643 84.2002 240.152 84.8347 239.988 85.4985C234.931 105.995 217.48 119.686 196.575 119.686Z" fill="white"/>
<path d="M265.14 117.329C265.14 117.92 264.66 118.4 264.069 118.4H251.94C251.348 118.4 250.868 117.92 250.868 117.329V55.7002C250.868 55.1084 251.348 54.6287 251.94 54.6287H263.426C264.017 54.6287 264.497 55.1084 264.497 55.7002V63.5002C268.097 57.9716 274.14 54.6287 283.14 54.6287H286.44C287.032 54.6287 287.511 55.1084 287.511 55.7002V67.8287C287.511 68.4205 287.032 68.9002 286.44 68.9002H281.468C269.897 68.9002 265.14 75.2001 265.14 85.1002V117.329Z" fill="white"/>
<path d="M324.357 142.932C324.193 143.336 323.801 143.6 323.365 143.6H310.633C309.873 143.6 309.355 142.831 309.64 142.126L319.037 118.931C319.142 118.673 319.142 118.385 319.038 118.127L293.953 56.1019C293.668 55.3975 294.187 54.6287 294.946 54.6287H308.05C308.493 54.6287 308.891 54.9017 309.05 55.3153L327.043 102.072L344.781 55.3201C344.939 54.9039 345.337 54.6287 345.783 54.6287H358.623C359.383 54.6287 359.902 55.3987 359.616 56.1033L324.357 142.932Z" fill="white"/>
<path d="M381.246 142.529C381.246 143.12 380.766 143.6 380.175 143.6H368.046C367.454 143.6 366.975 143.12 366.975 142.529V55.7002C366.975 55.1084 367.454 54.6287 368.046 54.6287H379.532C380.123 54.6287 380.603 55.1084 380.603 55.7002V63.1144C385.232 56.943 392.946 53.343 401.946 53.343C420.203 53.343 434.089 67.8716 434.089 86.5144C434.089 105.157 420.203 119.686 401.946 119.686C393.332 119.686 386.003 116.343 381.246 110.557V142.529ZM400.403 106.186C411.589 106.186 419.817 97.9573 419.817 86.5144C419.817 74.943 411.589 66.7144 400.403 66.7144C389.217 66.7144 381.117 74.943 381.117 86.5144C381.117 97.9573 389.217 106.186 400.403 106.186Z" fill="white"/>
<path d="M478.815 117.329C478.815 117.92 478.335 118.4 477.743 118.4H469.043C454.515 118.4 447.572 112.1 447.572 98.8573V67.743H438.1C437.509 67.743 437.029 67.2633 437.029 66.6716V55.7002C437.029 55.1084 437.509 54.6287 438.1 54.6287H444.357C446.286 54.6287 447.572 53.343 447.572 51.0287V39.7573C447.572 39.1656 448.051 38.6859 448.643 38.6859H460.772C461.363 38.6859 461.843 39.1656 461.843 39.7573V54.6287H477.743C478.335 54.6287 478.815 55.1084 478.815 55.7002V66.6716C478.815 67.2633 478.335 67.743 477.743 67.743H461.843V97.443C461.843 102.457 464.286 105.029 470.072 105.029H477.743C478.335 105.029 478.815 105.508 478.815 106.1V117.329Z" fill="white"/>
<path d="M516.947 119.686C498.047 119.686 483.261 105.157 483.261 86.5144C483.261 67.8716 498.047 53.343 516.947 53.343C535.718 53.343 550.504 67.8716 550.504 86.5144C550.504 105.157 535.718 119.686 516.947 119.686ZM516.947 106.314C528.133 106.314 536.233 97.9573 536.233 86.5144C536.233 75.0716 528.133 66.7144 516.947 66.7144C505.761 66.7144 497.533 75.0716 497.533 86.5144C497.533 97.9573 505.761 106.314 516.947 106.314Z" fill="white"/>
<path d="M575.257 117.235C575.257 117.879 574.736 118.4 574.092 118.4H561.543C560.951 118.4 560.472 117.92 560.472 117.329V30.7573C560.472 30.1656 560.951 29.6859 561.543 29.6859H574.186C574.778 29.6859 575.257 30.1656 575.257 30.7573V61.2716C575.257 61.8633 575.737 62.343 576.329 62.343H617C617.592 62.343 618.072 61.8633 618.072 61.2716V30.7573C618.072 30.1656 618.551 29.6859 619.143 29.6859H631.786C632.378 29.6859 632.857 30.1656 632.857 30.7573V117.329C632.857 117.92 632.378 118.4 631.786 118.4H619.237C618.593 118.4 618.072 117.879 618.072 117.235V94.1073C618.072 82.2844 608.487 72.7001 596.664 72.7001C584.842 72.7001 575.257 82.2844 575.257 94.1073V117.235Z" fill="white"/>
<path d="M675.763 119.686C658.534 119.686 646.32 108.5 646.32 89.9859V55.7002C646.32 55.1084 646.8 54.6287 647.391 54.6287H659.52C660.112 54.6287 660.591 55.1084 660.591 55.7002V89.4716C660.591 100.143 666.634 106.186 675.763 106.186C685.02 106.186 690.934 100.143 690.934 89.4716V55.7001C690.934 55.1084 691.414 54.6287 692.006 54.6287H704.134C704.726 54.6287 705.206 55.1084 705.206 55.7002V89.9859C705.206 108.5 692.992 119.686 675.763 119.686Z" fill="white"/>
<path d="M753.132 119.686C744.132 119.686 736.546 116.086 731.789 109.914V117.329C731.789 117.92 731.309 118.4 730.718 118.4H719.232C718.64 118.4 718.16 117.92 718.16 117.329V30.7573C718.16 30.1656 718.64 29.6859 719.232 29.6859H731.36C731.952 29.6859 732.432 30.1656 732.432 30.7573V62.343C737.189 56.6859 744.518 53.343 753.132 53.343C771.389 53.343 785.275 67.8716 785.275 86.5144C785.275 105.157 771.389 119.686 753.132 119.686ZM751.589 106.186C762.775 106.186 771.003 97.9573 771.003 86.5144C771.003 74.943 762.775 66.7144 751.589 66.7144C740.403 66.7144 732.303 74.943 732.303 86.5144C732.303 97.9573 740.403 106.186 751.589 106.186Z" fill="white"/>
</svg>
