<svg width="1440" height="900" viewBox="0 0 1440 900" fill="none" xmlns="http://www.w3.org/2000/svg">
<path d="M792.1 -858.063L1585.29 -327.848C1678.83 -265.313 1735 -160.378 1735 -48.054L1735 -47.7769C1735 64.5472 1678.88 169.482 1585.29 232.017L792.1 762.232C761.352 782.785 720 760.8 720 723.851L720 537.168C720 500.219 678.694 478.235 647.9 498.787L2.70676 929.841C-11.0001 938.985 -11.0001 959.076 2.70676 968.221L647.9 1399.32C678.648 1419.87 720 1397.89 720 1360.94L720 1136.98C720 1106.18 735.374 1077.4 761.074 1060.27L1716.99 421.287C1724.67 416.161 1735 421.657 1735 430.894L1735 589.312C1735 701.636 1678.88 806.57 1585.29 869.106L761.074 1420.06C735.42 1437.19 720 1465.97 720 1496.77L720 1720.73C720 1757.68 678.694 1779.66 647.9 1759.11L-145.29 1228.89C-238.876 1166.36 -295 1061.42 -295 949.1C-295 836.776 -238.876 731.842 -145.29 669.306L647.9 139.091C678.648 118.539 720 140.523 720 177.472L720 364.155C720 401.104 761.306 423.089 792.1 402.536L1437.2 -28.656C1450.91 -37.8008 1450.91 -57.8917 1437.2 -67.0365L792.1 -498.228C761.352 -518.781 720 -496.796 720 -459.848L720 -235.615C720 -204.809 704.626 -176.035 678.926 -158.9L-276.987 480.036C-284.674 485.163 -295 479.666 -295 470.429L-295 311.965C-295 199.641 -238.876 94.7529 -145.336 32.171L678.972 -519.058C704.626 -536.193 720 -564.967 720 -595.773L720 -819.729C720 -856.677 761.306 -878.662 792.1 -858.109L792.1 -858.063Z" stroke="url(#paint0_linear_84_2826)" stroke-width="2"/>
<defs>
<linearGradient id="paint0_linear_84_2826" x1="-15.5" y1="450.5" x2="1443" y2="450.5" gradientUnits="userSpaceOnUse">
<stop stop-color="#00EB77"/>
<stop offset="0.225" stop-color="#00EB77" stop-opacity="0.5"/>
<stop offset="0.499116" stop-color="#00EB77" stop-opacity="0.15"/>
<stop offset="0.735" stop-color="#00EB77" stop-opacity="0.5"/>
<stop offset="1" stop-color="#00EB77"/>
</linearGradient>
</defs>
</svg>
